<svg id="wpe-logomark" xmlns="http://www.w3.org/2000/svg" width="51" height="51" viewBox="0 0 51 51"><title>wpe-logomark</title><polygon points="17.3 51 33.7 51 33.7 38.5 29.7 34.6 21.2 34.6 17.3 38.5 17.3 51" style="fill:#40bac8"/><polygon points="38.5 17.3 34.6 21.2 34.6 29.8 38.5 33.7 51 33.7 51 17.3 38.5 17.3" style="fill:#40bac8"/><polygon points="33.7 0 17.3 0 17.3 12.5 21.2 16.4 29.7 16.4 33.7 12.5 33.7 0" style="fill:#40bac8"/><polygon points="51 51 51 38.5 47.1 34.6 34.6 34.6 34.6 51 51 51" style="fill:#40bac8"/><polygon points="3.9 0 0 3.9 0 16.4 16.4 16.4 16.4 0 3.9 0" style="fill:#40bac8"/><polygon points="34.6 0 34.6 12.5 38.5 16.4 51 16.4 51 0 34.6 0" style="fill:#40bac8"/><path d="M25.5,27.8a2.33,2.33,0,0,1-2.3-2.3,2.4,2.4,0,0,1,2.3-2.3A2.3,2.3,0,1,1,25.5,27.8Z" style="fill:#40bac8"/><polygon points="16.4 17.3 0 17.3 0 33.7 12.4 33.7 16.4 29.8 16.4 17.3" style="fill:#40bac8"/><polygon points="16.4 38.5 12.4 34.6 0 34.6 0 51 12.4 51 16.4 47.1 16.4 38.5" style="fill:#40bac8"/></svg>